<svg xmlns="http://www.w3.org/2000/svg" xmlns:xlink="http://www.w3.org/1999/xlink" width="1062" height="1010" viewBox="0 0 1062 1010">
  <defs>
    <clipPath id="clip-path">
      <rect id="Rect치ngulo_1244" data-name="Rect치ngulo 1244" width="1062" height="1010" fill="#fff" stroke="#707070" stroke-width="1"/>
    </clipPath>
    <linearGradient id="linear-gradient" x1="0.866" x2="0" y2="1" gradientUnits="objectBoundingBox">
      <stop offset="0" stop-color="#94c126"/>
      <stop offset="0.468" stop-color="#06347c"/>
      <stop offset="0.591" stop-color="#05337c"/>
      <stop offset="0.744" stop-color="#03317e"/>
      <stop offset="1" stop-color="#002e80"/>
    </linearGradient>
  </defs>
  <g id="Enmascarar_grupo_1" data-name="Enmascarar grupo 1" clip-path="url(#clip-path)">
    <path id="Sustracci칩n_1" data-name="Sustracci칩n 1" d="M569.859,1009.892H0V0H1483.891c-5.85,5.225-12.173,10.32-18.792,15.145-6.354,4.633-13.175,9.158-20.271,13.45a369.471,369.471,0,0,1-44.035,22.495c-14.364,6.229-29.78,12.039-47.129,17.761-14.34,4.729-30.154,9.437-48.349,14.391-10.885,2.948-21.94,5.834-32.633,8.625l-.021.006c-31.413,8.2-63.9,16.681-94.693,27.374a477.17,477.17,0,0,0-45.115,18.079,332.274,332.274,0,0,0-42.244,23.3,229.692,229.692,0,0,0-43.3,36.767,215.359,215.359,0,0,0-17.672,21.98,192.079,192.079,0,0,0-14.22,23.741c-17.676,35.173-21.241,70.794-10.311,103.01a161.177,161.177,0,0,0,14.714,30.8c5.905,9.873,12.666,19.6,19.2,29.01l.008.011c7.647,11,15.555,22.382,22.1,34.008a160.8,160.8,0,0,1,8.729,17.812,113,113,0,0,1,5.96,18.8,100.485,100.485,0,0,1,.063,42.327,127.985,127.985,0,0,1-16.071,39.993c-14.983,24.837-38.2,46.9-65.374,62.119-6.48,3.63-13.358,7.068-20.44,10.217-6.751,3-13.9,5.838-21.261,8.43a381.811,381.811,0,0,1-44.4,12.494C877.481,659,844.82,663.058,816,666.638c-33.238,4.129-63.126,8.086-92.3,14.714a373.763,373.763,0,0,0-44.313,12.755c-7.334,2.645-14.46,5.536-21.18,8.593-7.05,3.208-13.89,6.707-20.329,10.4a223.7,223.7,0,0,0-36.192,25.818,214.872,214.872,0,0,0-29.605,31.777,206.766,206.766,0,0,0-22.209,36.672,200.466,200.466,0,0,0-14.011,40.5,196.255,196.255,0,0,0-.783,84.275,200.012,200.012,0,0,0,13.079,40.33,206.1,206.1,0,0,0,21.7,37.417v0h0Z" transform="translate(-425.999)" fill="url(#linear-gradient)"/>
    <path id="Trazado_1505" data-name="Trazado 1505" d="M1574.708,0V1009.892H224.569c-34.563-47.384-46.85-105.943-34-162.026S240.3,743.076,292.591,713.1c52.947-30.359,116.535-38.811,178.121-46.461s125.145-15.781,178.436-45.632,93.909-87.653,81.38-144.438c-10.555-47.986-54.864-83.748-70.711-130.449-23.313-68.715,22.311-144.144,85.5-185.5S885.965,103.3,960.023,83.239C1024.469,65.693,1090.66,42.8,1138.6,0Z" transform="translate(-80.707 0.001)" fill="#766cf7" opacity="0"/>
    <path id="Trazado_1506" data-name="Trazado 1506" d="M1153.733,0l-.343.267C1047.037,78.8,899.352,51.944,783.474,108.864c-51.86,25.491-98.658,69.33-105.465,126.063-8.1,67.324,36.9,126.41,65.047,185.015,25.2,52.426,42.907,117.263,3.576,167.923-34.068,44-93.966,61.52-149.173,67.565-36.871,4.039-74.057,4.119-110.957,7.6a391.792,391.792,0,0,0-94.567,20.195c-56.249,20.025-106.354,52.7-145.884,95.142A321.277,321.277,0,0,0,160.551,1010h-2.86c-3.719-94.34,34.612-188.492,108.268-254.934,42.29-38.21,93.757-66.387,150.089-82.169,31.465-8.747,63.9-12.465,96.6-14.5,37.987-2.354,76.374-2.862,113.875-9.736,57.409-10.539,118.423-40.122,135.786-96.426,20.023-65.078-20.853-129.754-50.6-185.951-28.147-53.175-52.232-113.571-24.571-171.4,23.37-48.788,74-82.7,126.146-101.214,66.906-23.752,139.076-27.283,208.3-42.235,44.909-9.843,90.562-25.036,127.4-51.436Z" transform="translate(-133.082 0.001)" fill="#ebf3ff"/>
    <path id="Trazado_1505-2" data-name="Trazado 1505" d="M1574.708,0V1009.892H224.569c-34.563-47.384-46.85-105.943-34-162.026S240.3,743.076,292.591,713.1c52.947-30.359,116.535-38.811,178.121-46.461s125.145-15.781,178.436-45.632,93.909-87.653,81.38-144.438c-10.555-47.986-54.864-83.748-70.711-130.449-23.313-68.715,22.311-144.144,85.5-185.5S885.965,103.3,960.023,83.239C1024.469,65.693,1090.66,42.8,1138.6,0Z" transform="translate(-80.707 0.001)" fill="#766cf7" opacity="0"/>
    <path id="Trazado_1506-2" data-name="Trazado 1506" d="M1153.733,0l-.343.267C1047.037,78.8,899.352,51.944,783.474,108.864c-51.86,25.491-98.658,69.33-105.465,126.063-8.1,67.324,36.9,126.41,65.047,185.015,25.2,52.426,42.907,117.263,3.576,167.923-34.068,44-93.966,61.52-149.173,67.565-36.871,4.039-74.057,4.119-110.957,7.6a391.792,391.792,0,0,0-94.567,20.195c-56.249,20.025-106.354,52.7-145.884,95.142A321.277,321.277,0,0,0,160.551,1010h-2.86c-3.719-94.34,34.612-188.492,108.268-254.934,42.29-38.21,93.757-66.387,150.089-82.169,31.465-8.747,63.9-12.465,96.6-14.5,37.987-2.354,76.374-2.862,113.875-9.736,57.409-10.539,118.423-40.122,135.786-96.426,20.023-65.078-20.853-129.754-50.6-185.951-28.147-53.175-52.232-113.571-24.571-171.4,23.37-48.788,74-82.7,126.146-101.214,66.906-23.752,139.076-27.283,208.3-42.235,44.909-9.843,90.562-25.036,127.4-51.436Z" transform="translate(-134.082 -0.859)" fill="#ebf3ff"/>
  </g>
</svg>
